<svg xmlns="http://www.w3.org/2000/svg" width="22.672" height="22.666" viewBox="0 0 22.672 22.666">
  <g id="calendar-Bold" transform="translate(1.519 1.519)">
    <path id="calendar-Bold-2" d="M46.548,30.676a1.134,1.134,0,0,0-2.269,0h-6.8a1.134,1.134,0,0,0-2.269,0,5.675,5.675,0,0,0-5.669,5.669v10.2a5.675,5.675,0,0,0,5.669,5.669H46.542a5.675,5.675,0,0,0,5.669-5.669v-10.2a5.675,5.675,0,0,0-5.669-5.669ZM35.215,32.945v1.132a1.134,1.134,0,0,0,2.269,0V32.945h6.8v1.132a1.134,1.134,0,0,0,2.269,0V32.945a3.4,3.4,0,0,1,3.4,3.4H31.819a3.4,3.4,0,0,1,3.4-3.4h0Zm11.333,17H35.215a3.4,3.4,0,0,1-3.4-3.4V38.614H49.948v7.933A3.4,3.4,0,0,1,46.548,49.948Zm0-7.933a1.132,1.132,0,1,1-1.132-1.132h0A1.133,1.133,0,0,1,46.548,42.015Zm-4.532,0a1.132,1.132,0,1,1-1.132-1.132,1.133,1.133,0,0,1,1.132,1.132Zm-4.532,0a1.132,1.132,0,1,1-1.132-1.132h0A1.133,1.133,0,0,1,37.483,42.015Zm9.07,4.532a1.132,1.132,0,1,1-1.132-1.132h0A1.133,1.133,0,0,1,46.553,46.547Zm-4.532,0a1.132,1.132,0,1,1-1.132-1.132,1.133,1.133,0,0,1,1.132,1.132Zm-4.532,0a1.132,1.132,0,1,1-1.132-1.132h0A1.133,1.133,0,0,1,37.489,46.547Z" transform="translate(-31.059 -31.069)" fill="#fff"/>
  </g>
</svg>
