<svg xmlns="http://www.w3.org/2000/svg" width="13.668" height="30.934" viewBox="0 0 13.668 30.934">
  <g id="info_1_" data-name="info(1)" transform="translate(-31.139)">
    <path id="Tracé_89" data-name="Tracé 89" d="M44.4,27.6l-.432,1.767q-1.945.768-3.1,1.169a8.187,8.187,0,0,1-2.691.4,5.373,5.373,0,0,1-3.662-1.148A3.717,3.717,0,0,1,33.2,26.868a10.32,10.32,0,0,1,.1-1.4q.1-.718.316-1.621l1.62-5.736q.216-.824.365-1.562a6.787,6.787,0,0,0,.147-1.344,2.079,2.079,0,0,0-.454-1.533,2.562,2.562,0,0,0-1.733-.433,4.542,4.542,0,0,0-1.288.2c-.441.13-.818.256-1.134.373l.433-1.768q1.592-.648,3.047-1.11a9.113,9.113,0,0,1,2.755-.462,5.242,5.242,0,0,1,3.607,1.13,3.751,3.751,0,0,1,1.267,2.936c0,.249-.028.688-.087,1.316a8.8,8.8,0,0,1-.325,1.73l-1.614,5.713a15.174,15.174,0,0,0-.355,1.574A8.1,8.1,0,0,0,39.71,26.2a1.924,1.924,0,0,0,.508,1.552,2.869,2.869,0,0,0,1.765.412,5.1,5.1,0,0,0,1.335-.206A7.463,7.463,0,0,0,44.4,27.6Zm.409-23.983a3.343,3.343,0,0,1-1.129,2.544A3.843,3.843,0,0,1,40.96,7.209a3.886,3.886,0,0,1-2.732-1.052,3.335,3.335,0,0,1-1.139-2.544A3.369,3.369,0,0,1,38.228,1.06a4.033,4.033,0,0,1,5.45,0A3.375,3.375,0,0,1,44.807,3.612Z" fill="#fff"/>
  </g>
</svg>
