<svg xmlns="http://www.w3.org/2000/svg" xmlns:xlink="http://www.w3.org/1999/xlink" width="32" height="32" viewBox="0 0 32 32">
  <defs>
    <clipPath id="clip-path">
      <path id="artboard_1" d="M0,0H32V32H0Z" fill="#fff"/>
    </clipPath>
  </defs>
  <g id="play-button-Copy" clip-path="url(#clip-path)">
    <path id="Vector" d="M1,16A14.453,14.453,0,0,1,5.393,5.393,14.453,14.453,0,0,1,16,1,14.453,14.453,0,0,1,26.607,5.393,14.453,14.453,0,0,1,31,16a14.453,14.453,0,0,1-4.393,10.607A14.453,14.453,0,0,1,16,31,14.453,14.453,0,0,1,5.393,26.607,14.453,14.453,0,0,1,1,16ZM8.222,8.222A10.6,10.6,0,0,0,5,16a10.6,10.6,0,0,0,3.222,7.778A10.6,10.6,0,0,0,16,27a10.6,10.6,0,0,0,7.778-3.222A10.6,10.6,0,0,0,27,16a10.6,10.6,0,0,0-3.222-7.778A10.6,10.6,0,0,0,16,5,10.6,10.6,0,0,0,8.222,8.222ZM13.53,21.848l8-5a1,1,0,0,0,.318-.318,1,1,0,0,0-.318-1.378l-8-5A1,1,0,0,0,13,10a1,1,0,0,0-1,1V21a1,1,0,0,0,.152.53,1,1,0,0,0,1.378.318Z" fill="#fff" fill-rule="evenodd"/>
  </g>
</svg>
