<svg xmlns="http://www.w3.org/2000/svg" width="24.015" height="24" viewBox="0 0 24.015 24">
  <g id="Layer_x0020_1" transform="translate(0.387 -1.562)">
    <path id="Tracé_82" data-name="Tracé 82" d="M1534.481,28.454a.367.367,0,0,1-.238-.1.342.342,0,0,1-.017-.465l-1.39-1.424a.373.373,0,0,1-.249.1.342.342,0,0,1-.233-.1.338.338,0,0,1,0-.487c2.836-2.892,5.767-5.8,8.7-8.719l-.388-.41a.361.361,0,0,1-.1-.271.34.34,0,0,1,.138-.255l4.72-3.257a.329.329,0,0,1,.427.039l1.717,1.717a.33.33,0,0,1,.039.432l-3.257,4.736a.41.41,0,0,1-.255.155.364.364,0,0,1-.271-.094l-.388-.393-5.246,5.229c-.027.033-2.88,2.9-3.457,3.468A.3.3,0,0,1,1534.481,28.454Z" transform="translate(-1524.146 -11.378)" fill="#fff" fill-rule="evenodd"/>
    <path id="Tracé_83" data-name="Tracé 83" d="M15.838,2105.585a3.592,3.592,0,0,1-2.537-6.127l1.972-1.972a.326.326,0,0,1,.388-.056,1.545,1.545,0,0,0,2.072-2.066.36.36,0,0,1,.055-.393l1.64-1.618a.338.338,0,0,1,.487,0l4.581,4.581a.368.368,0,0,1,.1.238.323.323,0,0,1-.1.233l-1.634,1.617a.325.325,0,0,1-.393.061,1.543,1.543,0,0,0-2.066,2.066.341.341,0,0,1-.061.388l-1.95,1.989A3.576,3.576,0,0,1,15.838,2105.585Zm-.216-3.025a.353.353,0,0,1-.233-.1.338.338,0,0,1,0-.488l4.271-4.271a.345.345,0,0,1,.487.488l-4.288,4.271A.367.367,0,0,1,15.622,2102.561Z" transform="translate(-12.567 -2080.101)" fill="#fff" fill-rule="evenodd"/>
    <path id="Tracé_84" data-name="Tracé 84" d="M19.575,25.562h0a4,4,0,0,1-2.847-1.191,4.081,4.081,0,0,1-1.069-3.822L11.8,16.693c1.4-1.4,2.576-2.593,2.7-2.72l.255-.249,3.867,3.861a4.044,4.044,0,0,1,3.822,6.786A4.108,4.108,0,0,1,19.575,25.562ZM8.484,13.386,5.4,10.306A4.528,4.528,0,0,1,.934,9.2,4.448,4.448,0,0,1-.279,5.06a.339.339,0,0,1,.238-.249.319.319,0,0,1,.327.078L2.923,7.52l2.67-2.631L2.961,2.235A.306.306,0,0,1,2.884,1.9a.331.331,0,0,1,.249-.233A4.474,4.474,0,0,1,7.249,2.855,4.507,4.507,0,0,1,8.363,7.342l3.074,3.074Q9.958,11.9,8.484,13.386ZM19.558,23.435a1.931,1.931,0,0,1-1.363-3.3,1.926,1.926,0,0,1,2.709,0,1.906,1.906,0,0,1-.022,2.731A1.724,1.724,0,0,1,19.558,23.435Z" transform="translate(0 0)" fill="#fff" fill-rule="evenodd"/>
  </g>
</svg>
