<?xml version="1.0" encoding="utf-8"?>
<!-- Generator: Adobe Illustrator 27.1.1, SVG Export Plug-In . SVG Version: 6.00 Build 0)  -->
<svg version="1.1" id="Layer_1" xmlns="http://www.w3.org/2000/svg" xmlns:xlink="http://www.w3.org/1999/xlink" x="0px" y="0px"
	 viewBox="0 0 512 512" style="enable-background:new 0 0 512 512;" xml:space="preserve">
<style type="text/css">
	.st0{fill:#FFFFFF;}
</style>
<path class="st0" d="M183.1,213.8c0,22.6-18.4,41-41,41s-41-18.4-41-41c0-22.6,18.3-41,41-41S183.1,191.1,183.1,213.8L183.1,213.8z"
	/>
<circle class="st0" cx="256" cy="180.4" r="62"/>
<path class="st0" d="M369.9,172.7c22.6,0,41,18.4,41,41s-18.4,41-41,41s-41-18.4-41-41C329,191.1,347.3,172.7,369.9,172.7z"/>
<path class="st0" d="M456,311.5v27c0,3.4-2.1,6.4-5.2,7.5c-17,6.2-34.5,10.3-52.4,12.5v-0.2v-37.9c0.1-18.6-6.9-36.6-19.4-50.4
	c7.4-1.2,14.4-3.8,20.7-7.8C424.6,268.2,455.8,281.8,456,311.5L456,311.5z"/>
<path class="st0" d="M382.4,320.5v37.9c0,6.7-4.2,12.8-10.6,15c-74.9,26.9-156.8,26.9-231.7,0c-6.3-2.2-10.6-8.3-10.6-15v-37.9
	c0.1-44.9,47.6-65.4,85-74.1c25.4,16,57.6,15.9,83,0C334.9,255.3,382.2,275.5,382.4,320.5z"/>
<path class="st0" d="M133,270.1c-12.5,13.8-19.4,31.8-19.4,50.4v37.9v0.2c-17.8-2.2-35.4-6.3-52.3-12.5c-3.2-1.1-5.3-4.2-5.3-7.5
	v-27c0.1-29.7,31.5-43.3,56.2-49.2C118.6,266.2,125.6,268.9,133,270.1L133,270.1z"/>
</svg>
