<svg xmlns="http://www.w3.org/2000/svg" width="25.364" height="29.602" viewBox="0 0 25.364 29.602">
  <g id="_62-Stopwatch" data-name="62-Stopwatch" transform="translate(-3.987 -2)">
    <path id="Tracé_87" data-name="Tracé 87" d="M26.352,10.729,28,9.091a1.061,1.061,0,1,0-1.5-1.5L24.862,9.239A12.576,12.576,0,0,0,17.739,6.28V4.114h2.114a1.057,1.057,0,0,0,0-2.114H13.512a1.057,1.057,0,0,0,0,2.114h2.114V6.28a12.682,12.682,0,1,0,10.727,4.449Zm-9.67,18.748A10.568,10.568,0,1,1,27.251,18.909,10.568,10.568,0,0,1,16.682,29.477Z" transform="translate(0 0)" fill="#fff"/>
    <path id="Tracé_88" data-name="Tracé 88" d="M16.454,10a8.454,8.454,0,1,0,8.454,8.454A8.454,8.454,0,0,0,16.454,10Zm3.921,12.375a1.057,1.057,0,0,1-1.5,0L15.7,19.2a1.057,1.057,0,0,1-.306-.75V13.17a1.057,1.057,0,0,1,2.114,0v4.851l2.864,2.853a1.057,1.057,0,0,1,0,1.5Z" transform="translate(0.228 0.454)" fill="#fff"/>
  </g>
</svg>
