<svg xmlns="http://www.w3.org/2000/svg" width="18.439" height="24.583" viewBox="0 0 18.439 24.583">
  <path id="Tracé_78" data-name="Tracé 78" d="M53.1,39.149H51.56V37.1a7.171,7.171,0,0,0-14.342,0v2.048H35.681a.511.511,0,0,0-.511.511v12.8a2.05,2.05,0,0,0,2.048,2.048H51.56a2.05,2.05,0,0,0,2.048-2.048V39.66A.511.511,0,0,0,53.1,39.149Zm-7.177,10.7a.5.5,0,0,1-.129.4.525.525,0,0,1-.381.17H43.362a.515.515,0,0,1-.381-.17.539.539,0,0,1-.129-.4l.323-2.9a2.048,2.048,0,1,1,2.418,0l.323,2.9Zm2.564-10.7h-8.2V37.1a4.1,4.1,0,0,1,8.192,0v2.048Z" transform="translate(-35.17 -29.93)" fill="#fff"/>
</svg>
