<svg id="_7-Check" xmlns="http://www.w3.org/2000/svg" width="26.407" height="25.735" viewBox="0 0 26.407 25.735">
  <path id="Tracé_77" data-name="Tracé 77" d="M26.757,36.449a2.752,2.752,0,0,0-2.128,4.491L31.621,49.5a2.5,2.5,0,0,0,2.088.929,2.672,2.672,0,0,0,2.1-1.248L50.332,25.8a.01.01,0,0,1,.01-.01.751.751,0,0,0-.187-.884.77.77,0,0,0-1.091.044c-.01.01-.02.025-.029.034s-.01.015-.015.02L34.378,41.55a.636.636,0,0,1-.894.054l0,0-4.859-4.422a2.769,2.769,0,0,0-1.847-.722h0Z" transform="translate(-24.01 -24.702)" fill="#fff"/>
</svg>
